<?xml version="1.0" encoding="utf-8"?>
<svg viewBox="0 0 512 512" preserveAspectRatio="xMidYMid meet" enable-background="new 0 0 128 128" xmlns="http://www.w3.org/2000/svg">
  <g transform="matrix(4, 0, 0, 4, -0.000029, -3697.448975)">
    <path d="m 126.5,988.37986 a 62.5,62.5 0 0 1 -124.999995,0 62.5,62.5 0 1 1 124.999995,0 z" style="fill: rgb(255, 255, 255);"/>
    <g transform="matrix(0.02335871,0,0,-0.02334121,-0.11965895,1052.4471)" style="fill: rgb(190, 54, 49);">
      <path d="M 2515,5484 C 1798,5410 1171,5100 717,4595 332,4168 110,3689 23,3105 -1,2939 -1,2554 24,2385 111,1783 363,1266 774,842 1492,102 2529,-172 3521,116 c 448,130 858,379 1195,726 413,426 667,949 751,1548 24,173 24,548 -1,715 -91,625 -351,1150 -781,1580 -425,425 -943,685 -1555,780 -101,16 -520,29 -615,19 z m 611,-143 C 4158,5186 4999,4440 5275,3435 5501,2611 5302,1716 4747,1055 4319,547 3693,214 3028,141 c -125,-14 -441,-14 -566,0 -140,15 -338,55 -468,95 C 722,621 -58,1879 161,3188 c 41,249 115,474 234,717 310,631 860,1110 1528,1330 213,70 374,102 642,129 96,10 436,-4 561,-23 z" style="fill: rgb(157, 157, 157);"/>
      <path d="M 2575,5090 C 1629,5020 813,4386 516,3490 384,3089 362,2641 456,2222 643,1386 1307,696 2134,479 c 233,-61 337,-73 611,-73 274,0 378,12 611,73 548,144 1038,500 1357,986 193,294 315,629 363,995 20,156 15,513 -10,660 -42,241 -108,448 -215,665 -421,857 -1325,1375 -2276,1305 z m 820,-491 c 270,-48 512,-261 608,-537 26,-76 31,-104 35,-222 4,-115 1,-149 -17,-220 -62,-250 -237,-457 -467,-553 -63,-27 -134,-48 -134,-41 0,2 15,35 34,72 138,274 138,610 0,883 -110,220 -334,412 -564,483 -30,10 -62,20 -70,23 -21,7 77,56 175,88 126,41 255,49 400,24 z m -610,-285 c 310,-84 541,-333 595,-641 18,-101 8,-278 -20,-368 -75,-236 -220,-401 -443,-505 -109,-51 -202,-70 -335,-70 -355,0 -650,217 -765,563 -28,84 -31,104 -31,232 -1,118 3,152 22,220 89,306 335,528 650,585 67,13 257,3 327,-16 z M 4035,2940 c 301,-95 484,-325 565,-710 21,-103 47,-388 37,-414 -6,-14 -30,-16 -182,-16 -96,0 -175,3 -175,6 0,42 -37,236 -60,313 -99,334 -315,586 -567,661 -24,7 -43,17 -43,21 0,5 32,45 72,90 l 72,82 106,-6 c 67,-3 130,-13 175,-27 z m -1703,-510 258,-255 92,90 c 51,49 183,178 293,286 l 200,197 75,-9 c 207,-26 404,-116 547,-252 170,-161 267,-361 308,-632 15,-100 21,-394 9,-454 l -6,-31 -1519,0 c -1074,0 -1520,3 -1524,11 -14,21 -18,297 -6,407 59,561 364,896 866,950 97,10 55,41 407,-308 z" style="fill: rgb(157, 157, 157);"/>
    </g>
    <path d="M 59.787 1020.313 L 44.25 988.419 C 52.123 992.051 78.969 990.124 75.274 988.419 L 59.787 1020.313 Z" style="fill: rgb(255, 255, 255); transform-origin: 59.948px 1005.37px;"/>
    <g transform="matrix(0.269965, 0, 0, 0.269965, 49.476009, 961.014526)" style="">
      <path d="M22.827,59.193c-1.963,1.964-2.936,5.895-4.907,11.791c-1.916,5.745-5.4,10.315-5.4,10.315s4.553-3.495,10.312-5.403    c5.893-1.966,9.825-2.944,11.789-4.91c3.441-3.439,3.99-7.808,0.061-11.739C30.749,55.316,26.268,55.754,22.827,59.193z" style="fill: rgb(157, 157, 157);"/>
      <path d="M52.504,59.227c-3.438-3.44-7.807-3.989-11.738-0.06c-3.932,3.931-3.494,8.411-0.054,11.853    c1.965,1.964,5.894,2.937,11.791,4.908c5.744,1.915,10.315,5.399,10.315,5.399s-3.494-4.554-5.402-10.311    C55.448,65.122,54.472,61.189,52.504,59.227z" style="fill: rgb(157, 157, 157);"/>
      <path d="M76.653,72.112l-0.137-14.459c-0.217-5.478-3.162-10.256-7.522-13.015c1.097-0.645,2.139-1.42,3.079-2.36    c2.886-2.886,4.476-6.727,4.476-10.807c0-4.083-1.59-7.925-4.476-10.811c-2.886-2.887-6.724-4.477-10.806-4.477h-0.003    c-0.01,0-0.019,0.001-0.028,0.001c-3.914,0-7.828,1.489-10.808,4.468c-2.887,2.887-4.478,6.725-4.478,10.811    c0,4.082,1.591,7.922,4.478,10.807c2.542,2.541,5.818,4.073,9.352,4.405c0.806,0.077,1.616,0.076,2.425,0.027    c5.613,0.879,9.926,5.732,9.926,11.589l0.137,14.46c0.339,8.61,7.434,15.521,16.131,15.521v-4.415    C81.923,83.857,76.653,78.589,76.653,72.112z M50.367,31.463c0-2.903,1.133-5.635,3.186-7.688    c0.002-0.002,0.004-0.004,0.007-0.005l0.017,0.018c2.057-2.054,4.782-3.184,7.687-3.187c0.139,0,0.278,0.014,0.418,0.02    c0.202,0.008,0.406,0.011,0.605,0.03c2.425,0.232,4.785,1.275,6.639,3.126l0.008-0.009c0.005,0.005,0.012,0.009,0.018,0.015    c2.053,2.053,3.182,4.782,3.182,7.688c0,2.902-1.129,5.632-3.182,7.685c-0.004,0.002-0.006,0.005-0.009,0.007l-0.017-0.018    c-1.782,1.78-4.071,2.864-6.54,3.122c-0.657-0.081-1.999,0.021-1.999,0.021c-0.058-0.004-0.116-0.003-0.174-0.009    c-2.423-0.233-4.783-1.275-6.636-3.127l-0.008,0.009c-0.005-0.006-0.011-0.01-0.016-0.016    C51.5,37.096,50.367,34.365,50.367,31.463z" style="fill: rgb(216, 72, 0);"/>
      <path d="M13.394,31.963c0,1.756,1.426,3.179,3.184,3.179c1.758,0,3.184-1.423,3.184-3.179c0-1.761-1.426-3.186-3.184-3.186    C14.82,28.777,13.394,30.202,13.394,31.963z" style="fill: rgb(157, 157, 157);"/>
    </g>
    <g transform="matrix(0.540625, 0, 0, 0.506476, -3.48101, 978.52002)" style="">
      <path d="M 106.491 29.446 L 92.626 22.958 C 91.258 22.205 90.532 20.964 90.869 19.97 L 90.945 19.614 C 91.025 18.42 92.432 17.76 94.12 18.129 L 107.001 22.114 C 105.885 22.88 105.4 24.067 105.663 25.384 L 106.491 29.446 Z" style="transform-origin: 98.953px 23.368px; fill: rgb(216, 72, 0);"/>
      <path d="M 143.571 19.342 L 143.647 19.71 C 144.001 20.731 143.194 22.071 141.703 22.937 L 126.572 30.504 L 127.455 26.231 C 127.759 24.837 127.249 23.621 126.046 22.881 L 140.076 17.989 C 141.935 17.476 143.495 18.08 143.571 19.342 Z" style="transform-box: fill-box; transform-origin: 54.1459% 55.9206%; fill: rgb(216, 72, 0);"/>
      <polygon points="118.536 37.226 108.032 43.156 109.974 37.226 118.536 37.226" style="fill: rgb(216, 72, 0);"/>
      <path d="M 117.58 69.073 L 127.687 63.378 L 118.188 76.035 C 117.393 77.09 115.777 77.09 114.983 76.035 L 112.105 72.168 L 117.58 69.073 Z" style="fill: rgb(216, 72, 0);"/>
      <path d="M 115.59 57.838 L 105.573 63.514 L 103.254 60.437 C 102.875 59.937 102.763 59.288 102.955 58.694 L 103.075 58.335 L 125.885 45.444 L 127.706 51.003 L 115.59 57.838 Z" style="fill: rgb(216, 72, 0);"/>
      <path d="M 122.559 35.279 L 110.611 35.279 L 107.873 26.088 C 107.502 24.843 108.457 23.596 109.784 23.596 L 123.386 23.596 C 124.713 23.596 125.669 24.843 125.298 26.088 L 122.559 35.279 Z" style="fill: rgb(216, 72, 0);"/>
      <polygon points="125.267 43.545 116.586 48.442 103.97 55.56 107.137 45.911 116.586 40.575 123.087 36.907 125.267 43.545" style="stroke-width: 0.955018px; fill: rgb(216, 72, 0);"/>
      <path d="M 130.215 58.704 C 130.375 59.197 130.165 59.73 129.708 59.989 L 116.586 67.409 L 110.921 70.611 L 106.757 65.07 L 116.586 59.521 L 128.323 52.902 L 130.215 58.704 Z" style="fill: rgb(216, 72, 0);"/>
    </g>
  </g>
</svg>
